<?xml version="1.0" encoding="UTF-8" standalone="no"?>
<!-- Created with Inkscape (http://www.inkscape.org/) -->

<svg
   xmlns:dc="http://purl.org/dc/elements/1.1/"
   xmlns:cc="http://creativecommons.org/ns#"
   xmlns:rdf="http://www.w3.org/1999/02/22-rdf-syntax-ns#"
   xmlns:svg="http://www.w3.org/2000/svg"
   xmlns="http://www.w3.org/2000/svg"
   xmlns:sodipodi="http://sodipodi.sourceforge.net/DTD/sodipodi-0.dtd"
   xmlns:inkscape="http://www.inkscape.org/namespaces/inkscape"
   id="svg4206"
   version="1.1"
   inkscape:version="0.91 r13725"
   width="8.5in"
   height="11in"
   viewBox="0 0 765.00002 989.99998"
   sodipodi:docname="crown_template.svg">
  <metadata
     id="metadata4212">
    <rdf:RDF>
      <cc:Work
         rdf:about="">
        <dc:format>image/svg+xml</dc:format>
        <dc:type
           rdf:resource="http://purl.org/dc/dcmitype/StillImage" />
        <dc:title></dc:title>
      </cc:Work>
    </rdf:RDF>
  </metadata>
  <defs
     id="defs4210" />
  <sodipodi:namedview
     pagecolor="#ffffff"
     bordercolor="#666666"
     borderopacity="1"
     objecttolerance="10"
     gridtolerance="10"
     guidetolerance="10"
     inkscape:pageopacity="0"
     inkscape:pageshadow="2"
     inkscape:window-width="1280"
     inkscape:window-height="702"
     id="namedview4208"
     showgrid="false"
     units="in"
     inkscape:document-units="in"
     inkscape:zoom="1"
     inkscape:cx="321.26037"
     inkscape:cy="687.41998"
     inkscape:window-x="0"
     inkscape:window-y="1"
     inkscape:window-maximized="1"
     inkscape:current-layer="svg4206" />
  <g
     id="g4426"
     transform="translate(264.2153,28.284271)">
    <g
       id="g4387">
      <g
         id="g4351"
         transform="translate(212.13203,-50.911688)">
        <g
           id="g4305">
          <g
             id="g4234"
             transform="translate(-233.61732,54.926407)">
            <g
               id="g4224">
              <path
                 style="fill:none;fill-rule:evenodd;stroke:#000000;stroke-width:1px;stroke-linecap:butt;stroke-linejoin:miter;stroke-opacity:1"
                 d="M 236.88168,170.928 139.29913,112.4802"
                 id="path4218"
                 inkscape:connector-curvature="0" />
              <path
                 inkscape:connector-curvature="0"
                 id="path4222"
                 d="m 237.46747,171.04874 -97.58255,58.4478"
                 style="fill:none;fill-rule:evenodd;stroke:#000000;stroke-width:1px;stroke-linecap:butt;stroke-linejoin:miter;stroke-opacity:1" />
            </g>
            <g
               transform="translate(-0.29289322,-116.70711)"
               id="g4228">
              <path
                 style="fill:none;fill-rule:evenodd;stroke:#000000;stroke-width:1px;stroke-linecap:butt;stroke-linejoin:miter;stroke-opacity:1"
                 d="m 237.46747,171.04874 -97.58255,58.4478"
                 id="path4232"
                 inkscape:connector-curvature="0" />
            </g>
          </g>
          <g
             transform="translate(-231.93102,288.49957)"
             id="g4242">
            <g
               id="g4244">
              <path
                 inkscape:connector-curvature="0"
                 id="path4246"
                 d="M 236.88168,170.928 139.29913,112.4802"
                 style="fill:none;fill-rule:evenodd;stroke:#000000;stroke-width:1px;stroke-linecap:butt;stroke-linejoin:miter;stroke-opacity:1" />
              <path
                 style="fill:none;fill-rule:evenodd;stroke:#000000;stroke-width:1px;stroke-linecap:butt;stroke-linejoin:miter;stroke-opacity:1"
                 d="m 237.46747,171.04874 -97.58255,58.4478"
                 id="path4248"
                 inkscape:connector-curvature="0" />
            </g>
            <g
               id="g4250"
               transform="translate(-0.29289322,-116.70711)">
              <path
                 style="fill:none;fill-rule:evenodd;stroke:#000000;stroke-width:1px;stroke-linecap:butt;stroke-linejoin:miter;stroke-opacity:1"
                 d="M 236.88168,170.928 139.29913,112.4802"
                 id="path4252"
                 inkscape:connector-curvature="0" />
              <path
                 inkscape:connector-curvature="0"
                 id="path4254"
                 d="m 237.46747,171.04874 -97.58255,58.4478"
                 style="fill:none;fill-rule:evenodd;stroke:#000000;stroke-width:1px;stroke-linecap:butt;stroke-linejoin:miter;stroke-opacity:1" />
            </g>
          </g>
        </g>
        <g
           transform="translate(2.8284271,466.69048)"
           id="g4321">
          <g
             transform="translate(-233.61732,54.926407)"
             id="g4323">
            <g
               id="g4325">
              <path
                 inkscape:connector-curvature="0"
                 id="path4327"
                 d="M 236.88168,170.928 139.29913,112.4802"
                 style="fill:none;fill-rule:evenodd;stroke:#000000;stroke-width:1px;stroke-linecap:butt;stroke-linejoin:miter;stroke-opacity:1" />
              <path
                 style="fill:none;fill-rule:evenodd;stroke:#000000;stroke-width:1px;stroke-linecap:butt;stroke-linejoin:miter;stroke-opacity:1"
                 d="m 237.46747,171.04874 -97.58255,58.4478"
                 id="path4329"
                 inkscape:connector-curvature="0" />
            </g>
            <g
               id="g4331"
               transform="translate(-0.29289322,-116.70711)">
              <path
                 style="fill:none;fill-rule:evenodd;stroke:#000000;stroke-width:1px;stroke-linecap:butt;stroke-linejoin:miter;stroke-opacity:1"
                 d="M 236.88168,170.928 139.29913,112.4802"
                 id="path4333"
                 inkscape:connector-curvature="0" />
              <path
                 inkscape:connector-curvature="0"
                 id="path4335"
                 d="m 237.46747,171.04874 -97.58255,58.4478"
                 style="fill:none;fill-rule:evenodd;stroke:#000000;stroke-width:1px;stroke-linecap:butt;stroke-linejoin:miter;stroke-opacity:1" />
            </g>
          </g>
          <g
             id="g4337"
             transform="translate(-231.93102,288.49957)">
            <g
               id="g4339">
              <path
                 style="fill:none;fill-rule:evenodd;stroke:#000000;stroke-width:1px;stroke-linecap:butt;stroke-linejoin:miter;stroke-opacity:1"
                 d="M 236.88168,170.928 139.29913,112.4802"
                 id="path4341"
                 inkscape:connector-curvature="0" />
              <path
                 inkscape:connector-curvature="0"
                 id="path4343"
                 d="m 237.46747,171.04874 -97.58255,58.4478"
                 style="fill:none;fill-rule:evenodd;stroke:#000000;stroke-width:1px;stroke-linecap:butt;stroke-linejoin:miter;stroke-opacity:1" />
            </g>
            <g
               transform="translate(-0.29289322,-116.70711)"
               id="g4345">
              <path
                 inkscape:connector-curvature="0"
                 id="path4347"
                 d="M 236.88168,170.928 139.29913,112.4802"
                 style="fill:none;fill-rule:evenodd;stroke:#000000;stroke-width:1px;stroke-linecap:butt;stroke-linejoin:miter;stroke-opacity:1" />
              <path
                 style="fill:none;fill-rule:evenodd;stroke:#000000;stroke-width:1px;stroke-linecap:butt;stroke-linejoin:miter;stroke-opacity:1"
                 d="m 237.46747,171.04874 -97.58255,58.4478"
                 id="path4349"
                 inkscape:connector-curvature="0" />
            </g>
          </g>
        </g>
      </g>
    </g>
    <g
       id="g4422">
      <path
         transform="translate(-21.778183,-112.69239)"
         style="fill:none;fill-rule:evenodd;stroke:#000000;stroke-width:1px;stroke-linecap:butt;stroke-linejoin:miter;stroke-opacity:1"
         d="M 236.88168,170.928 139.29913,112.4802"
         id="path4230"
         inkscape:connector-curvature="0" />
      <path
         inkscape:connector-curvature="0"
         id="path4385"
         d="M 117.49199,-0.4579396 -5.5445902,-1.8721496"
         style="fill:none;fill-rule:evenodd;stroke:#000000;stroke-width:1px;stroke-linecap:butt;stroke-linejoin:miter;stroke-opacity:1" />
    </g>
  </g>
  <g
     id="g4468">
    <path
       inkscape:connector-curvature="0"
       id="path4383"
       d="M 122.45079,934.01724 -0.5857864,932.60303"
       style="fill:none;fill-rule:evenodd;stroke:#000000;stroke-width:1px;stroke-linecap:butt;stroke-linejoin:miter;stroke-opacity:1"
       transform="translate(264.2153,28.284271)" />
    <path
       inkscape:connector-curvature="0"
       id="path4465"
       d="m 259.15464,25.859903 4.94974,934.441617"
       style="fill:none;fill-rule:evenodd;stroke:#000000;stroke-width:1px;stroke-linecap:butt;stroke-linejoin:miter;stroke-opacity:1" />
  </g>
  <g
     id="g4570"
     transform="translate(16.023358,2)">
    <circle
       inkscape:transform-center-y="-30.000001"
       inkscape:transform-center-x="21.000001"
       r="8"
       cy="88.75"
       cx="316.75"
       id="path4516"
       style="fill:#575f70;fill-opacity:0;stroke:#000000;stroke-width:1;stroke-miterlimit:4;stroke-dasharray:none;stroke-opacity:1" />
    <path
       inkscape:connector-curvature="0"
       id="path4522"
       d="m 325.16214,88.184824 c 1.23183,-0.658751 2.95508,-0.113179 3.47646,1.656838 0.34251,1.010875 -0.41491,2.032118 0.13849,2.960128 0.78259,2.163149 3.07752,3.037357 4.52538,1.549367 0.80396,-0.731039 1.06139,-2.042248 1.5157,-3.12191 0.86848,-2.682792 0.84805,-6.206656 -0.74543,-8.403211 -0.58855,-0.852674 -1.53232,-1.524789 -2.38165,-0.933631 -1.06352,0.702366 -1.35769,2.462965 -1.43765,3.917594 -0.0124,1.453884 0.10601,3.132359 0.93628,4.185643 0.94061,0.890586 2.24384,0.03211 2.78902,-1.161472 0.48514,-0.797782 0.29191,-2.104183 -0.41455,-2.538879 -0.39663,-0.462877 -0.99057,-0.210311 -1.26256,0.333391"
       style="fill:none;fill-rule:evenodd;stroke:#000000;stroke-width:0.44741622px;stroke-linecap:butt;stroke-linejoin:miter;stroke-opacity:1" />
    <path
       style="fill:none;fill-rule:evenodd;stroke:#000000;stroke-width:0.44741622px;stroke-linecap:butt;stroke-linejoin:miter;stroke-opacity:1"
       d="m 308.26456,88.184824 c -1.23183,-0.658751 -2.95508,-0.113179 -3.47646,1.656836 -0.34251,1.01088 0.41491,2.03212 -0.13849,2.96013 -0.78259,2.16315 -3.07752,3.03736 -4.52538,1.54937 -0.80396,-0.73104 -1.06139,-2.04225 -1.5157,-3.12191 -0.86848,-2.682795 -0.84805,-6.206659 0.74543,-8.403214 0.58855,-0.852674 1.53232,-1.524789 2.38165,-0.933631 1.06352,0.702366 1.35769,2.462965 1.43765,3.917594 0.0124,1.453884 -0.10601,3.132359 -0.93628,4.185641 -0.94061,0.89059 -2.24384,0.0321 -2.78902,-1.16147 -0.48514,-0.797782 -0.29191,-2.104183 0.41455,-2.538879 0.39663,-0.462877 0.99057,-0.210311 1.26256,0.333391"
       id="path4568"
       inkscape:connector-curvature="0" />
  </g>
  <g
     transform="translate(16.023358,112)"
     id="g4575">
    <circle
       style="fill:#575f70;fill-opacity:0;stroke:#000000;stroke-width:1;stroke-miterlimit:4;stroke-dasharray:none;stroke-opacity:1"
       id="circle4577"
       cx="316.75"
       cy="88.75"
       r="8"
       inkscape:transform-center-x="21.000001"
       inkscape:transform-center-y="-30.000001" />
    <path
       style="fill:none;fill-rule:evenodd;stroke:#000000;stroke-width:0.44741622px;stroke-linecap:butt;stroke-linejoin:miter;stroke-opacity:1"
       d="m 325.16214,88.184824 c 1.23183,-0.658751 2.95508,-0.113179 3.47646,1.656838 0.34251,1.010875 -0.41491,2.032118 0.13849,2.960128 0.78259,2.163149 3.07752,3.037357 4.52538,1.549367 0.80396,-0.731039 1.06139,-2.042248 1.5157,-3.12191 0.86848,-2.682792 0.84805,-6.206656 -0.74543,-8.403211 -0.58855,-0.852674 -1.53232,-1.524789 -2.38165,-0.933631 -1.06352,0.702366 -1.35769,2.462965 -1.43765,3.917594 -0.0124,1.453884 0.10601,3.132359 0.93628,4.185643 0.94061,0.890586 2.24384,0.03211 2.78902,-1.161472 0.48514,-0.797782 0.29191,-2.104183 -0.41455,-2.538879 -0.39663,-0.462877 -0.99057,-0.210311 -1.26256,0.333391"
       id="path4579"
       inkscape:connector-curvature="0" />
    <path
       inkscape:connector-curvature="0"
       id="path4581"
       d="m 308.26456,88.184824 c -1.23183,-0.658751 -2.95508,-0.113179 -3.47646,1.656836 -0.34251,1.01088 0.41491,2.03212 -0.13849,2.96013 -0.78259,2.16315 -3.07752,3.03736 -4.52538,1.54937 -0.80396,-0.73104 -1.06139,-2.04225 -1.5157,-3.12191 -0.86848,-2.682795 -0.84805,-6.206659 0.74543,-8.403214 0.58855,-0.852674 1.53232,-1.524789 2.38165,-0.933631 1.06352,0.702366 1.35769,2.462965 1.43765,3.917594 0.0124,1.453884 -0.10601,3.132359 -0.93628,4.185641 -0.94061,0.89059 -2.24384,0.0321 -2.78902,-1.16147 -0.48514,-0.797782 -0.29191,-2.104183 0.41455,-2.538879 0.39663,-0.462877 0.99057,-0.210311 1.26256,0.333391"
       style="fill:none;fill-rule:evenodd;stroke:#000000;stroke-width:0.44741622px;stroke-linecap:butt;stroke-linejoin:miter;stroke-opacity:1" />
  </g>
  <g
     id="g4583"
     transform="translate(16.023358,232)">
    <circle
       inkscape:transform-center-y="-30.000001"
       inkscape:transform-center-x="21.000001"
       r="8"
       cy="88.75"
       cx="316.75"
       id="circle4585"
       style="fill:#575f70;fill-opacity:0;stroke:#000000;stroke-width:1;stroke-miterlimit:4;stroke-dasharray:none;stroke-opacity:1" />
    <path
       inkscape:connector-curvature="0"
       id="path4587"
       d="m 325.16214,88.184824 c 1.23183,-0.658751 2.95508,-0.113179 3.47646,1.656838 0.34251,1.010875 -0.41491,2.032118 0.13849,2.960128 0.78259,2.163149 3.07752,3.037357 4.52538,1.549367 0.80396,-0.731039 1.06139,-2.042248 1.5157,-3.12191 0.86848,-2.682792 0.84805,-6.206656 -0.74543,-8.403211 -0.58855,-0.852674 -1.53232,-1.524789 -2.38165,-0.933631 -1.06352,0.702366 -1.35769,2.462965 -1.43765,3.917594 -0.0124,1.453884 0.10601,3.132359 0.93628,4.185643 0.94061,0.890586 2.24384,0.03211 2.78902,-1.161472 0.48514,-0.797782 0.29191,-2.104183 -0.41455,-2.538879 -0.39663,-0.462877 -0.99057,-0.210311 -1.26256,0.333391"
       style="fill:none;fill-rule:evenodd;stroke:#000000;stroke-width:0.44741622px;stroke-linecap:butt;stroke-linejoin:miter;stroke-opacity:1" />
    <path
       style="fill:none;fill-rule:evenodd;stroke:#000000;stroke-width:0.44741622px;stroke-linecap:butt;stroke-linejoin:miter;stroke-opacity:1"
       d="m 308.26456,88.184824 c -1.23183,-0.658751 -2.95508,-0.113179 -3.47646,1.656836 -0.34251,1.01088 0.41491,2.03212 -0.13849,2.96013 -0.78259,2.16315 -3.07752,3.03736 -4.52538,1.54937 -0.80396,-0.73104 -1.06139,-2.04225 -1.5157,-3.12191 -0.86848,-2.682795 -0.84805,-6.206659 0.74543,-8.403214 0.58855,-0.852674 1.53232,-1.524789 2.38165,-0.933631 1.06352,0.702366 1.35769,2.462965 1.43765,3.917594 0.0124,1.453884 -0.10601,3.132359 -0.93628,4.185641 -0.94061,0.89059 -2.24384,0.0321 -2.78902,-1.16147 -0.48514,-0.797782 -0.29191,-2.104183 0.41455,-2.538879 0.39663,-0.462877 0.99057,-0.210311 1.26256,0.333391"
       id="path4589"
       inkscape:connector-curvature="0" />
  </g>
  <g
     transform="translate(16.023358,350)"
     id="g4591">
    <circle
       style="fill:#575f70;fill-opacity:0;stroke:#000000;stroke-width:1;stroke-miterlimit:4;stroke-dasharray:none;stroke-opacity:1"
       id="circle4593"
       cx="316.75"
       cy="88.75"
       r="8"
       inkscape:transform-center-x="21.000001"
       inkscape:transform-center-y="-30.000001" />
    <path
       style="fill:none;fill-rule:evenodd;stroke:#000000;stroke-width:0.44741622px;stroke-linecap:butt;stroke-linejoin:miter;stroke-opacity:1"
       d="m 325.16214,88.184824 c 1.23183,-0.658751 2.95508,-0.113179 3.47646,1.656838 0.34251,1.010875 -0.41491,2.032118 0.13849,2.960128 0.78259,2.163149 3.07752,3.037357 4.52538,1.549367 0.80396,-0.731039 1.06139,-2.042248 1.5157,-3.12191 0.86848,-2.682792 0.84805,-6.206656 -0.74543,-8.403211 -0.58855,-0.852674 -1.53232,-1.524789 -2.38165,-0.933631 -1.06352,0.702366 -1.35769,2.462965 -1.43765,3.917594 -0.0124,1.453884 0.10601,3.132359 0.93628,4.185643 0.94061,0.890586 2.24384,0.03211 2.78902,-1.161472 0.48514,-0.797782 0.29191,-2.104183 -0.41455,-2.538879 -0.39663,-0.462877 -0.99057,-0.210311 -1.26256,0.333391"
       id="path4595"
       inkscape:connector-curvature="0" />
    <path
       inkscape:connector-curvature="0"
       id="path4597"
       d="m 308.26456,88.184824 c -1.23183,-0.658751 -2.95508,-0.113179 -3.47646,1.656836 -0.34251,1.01088 0.41491,2.03212 -0.13849,2.96013 -0.78259,2.16315 -3.07752,3.03736 -4.52538,1.54937 -0.80396,-0.73104 -1.06139,-2.04225 -1.5157,-3.12191 -0.86848,-2.682795 -0.84805,-6.206659 0.74543,-8.403214 0.58855,-0.852674 1.53232,-1.524789 2.38165,-0.933631 1.06352,0.702366 1.35769,2.462965 1.43765,3.917594 0.0124,1.453884 -0.10601,3.132359 -0.93628,4.185641 -0.94061,0.89059 -2.24384,0.0321 -2.78902,-1.16147 -0.48514,-0.797782 -0.29191,-2.104183 0.41455,-2.538879 0.39663,-0.462877 0.99057,-0.210311 1.26256,0.333391"
       style="fill:none;fill-rule:evenodd;stroke:#000000;stroke-width:0.44741622px;stroke-linecap:butt;stroke-linejoin:miter;stroke-opacity:1" />
  </g>
  <g
     id="g4599"
     transform="translate(16.023358,468)">
    <circle
       inkscape:transform-center-y="-30.000001"
       inkscape:transform-center-x="21.000001"
       r="8"
       cy="88.75"
       cx="316.75"
       id="circle4601"
       style="fill:#575f70;fill-opacity:0;stroke:#000000;stroke-width:1;stroke-miterlimit:4;stroke-dasharray:none;stroke-opacity:1" />
    <path
       inkscape:connector-curvature="0"
       id="path4603"
       d="m 325.16214,88.184824 c 1.23183,-0.658751 2.95508,-0.113179 3.47646,1.656838 0.34251,1.010875 -0.41491,2.032118 0.13849,2.960128 0.78259,2.163149 3.07752,3.037357 4.52538,1.549367 0.80396,-0.731039 1.06139,-2.042248 1.5157,-3.12191 0.86848,-2.682792 0.84805,-6.206656 -0.74543,-8.403211 -0.58855,-0.852674 -1.53232,-1.524789 -2.38165,-0.933631 -1.06352,0.702366 -1.35769,2.462965 -1.43765,3.917594 -0.0124,1.453884 0.10601,3.132359 0.93628,4.185643 0.94061,0.890586 2.24384,0.03211 2.78902,-1.161472 0.48514,-0.797782 0.29191,-2.104183 -0.41455,-2.538879 -0.39663,-0.462877 -0.99057,-0.210311 -1.26256,0.333391"
       style="fill:none;fill-rule:evenodd;stroke:#000000;stroke-width:0.44741622px;stroke-linecap:butt;stroke-linejoin:miter;stroke-opacity:1" />
    <path
       style="fill:none;fill-rule:evenodd;stroke:#000000;stroke-width:0.44741622px;stroke-linecap:butt;stroke-linejoin:miter;stroke-opacity:1"
       d="m 308.26456,88.184824 c -1.23183,-0.658751 -2.95508,-0.113179 -3.47646,1.656836 -0.34251,1.01088 0.41491,2.03212 -0.13849,2.96013 -0.78259,2.16315 -3.07752,3.03736 -4.52538,1.54937 -0.80396,-0.73104 -1.06139,-2.04225 -1.5157,-3.12191 -0.86848,-2.682795 -0.84805,-6.206659 0.74543,-8.403214 0.58855,-0.852674 1.53232,-1.524789 2.38165,-0.933631 1.06352,0.702366 1.35769,2.462965 1.43765,3.917594 0.0124,1.453884 -0.10601,3.132359 -0.93628,4.185641 -0.94061,0.89059 -2.24384,0.0321 -2.78902,-1.16147 -0.48514,-0.797782 -0.29191,-2.104183 0.41455,-2.538879 0.39663,-0.462877 0.99057,-0.210311 1.26256,0.333391"
       id="path4605"
       inkscape:connector-curvature="0" />
  </g>
  <g
     transform="translate(16.023358,582)"
     id="g4607">
    <circle
       style="fill:#575f70;fill-opacity:0;stroke:#000000;stroke-width:1;stroke-miterlimit:4;stroke-dasharray:none;stroke-opacity:1"
       id="circle4609"
       cx="316.75"
       cy="88.75"
       r="8"
       inkscape:transform-center-x="21.000001"
       inkscape:transform-center-y="-30.000001" />
    <path
       style="fill:none;fill-rule:evenodd;stroke:#000000;stroke-width:0.44741622px;stroke-linecap:butt;stroke-linejoin:miter;stroke-opacity:1"
       d="m 325.16214,88.184824 c 1.23183,-0.658751 2.95508,-0.113179 3.47646,1.656838 0.34251,1.010875 -0.41491,2.032118 0.13849,2.960128 0.78259,2.163149 3.07752,3.037357 4.52538,1.549367 0.80396,-0.731039 1.06139,-2.042248 1.5157,-3.12191 0.86848,-2.682792 0.84805,-6.206656 -0.74543,-8.403211 -0.58855,-0.852674 -1.53232,-1.524789 -2.38165,-0.933631 -1.06352,0.702366 -1.35769,2.462965 -1.43765,3.917594 -0.0124,1.453884 0.10601,3.132359 0.93628,4.185643 0.94061,0.890586 2.24384,0.03211 2.78902,-1.161472 0.48514,-0.797782 0.29191,-2.104183 -0.41455,-2.538879 -0.39663,-0.462877 -0.99057,-0.210311 -1.26256,0.333391"
       id="path4611"
       inkscape:connector-curvature="0" />
    <path
       inkscape:connector-curvature="0"
       id="path4613"
       d="m 308.26456,88.184824 c -1.23183,-0.658751 -2.95508,-0.113179 -3.47646,1.656836 -0.34251,1.01088 0.41491,2.03212 -0.13849,2.96013 -0.78259,2.16315 -3.07752,3.03736 -4.52538,1.54937 -0.80396,-0.73104 -1.06139,-2.04225 -1.5157,-3.12191 -0.86848,-2.682795 -0.84805,-6.206659 0.74543,-8.403214 0.58855,-0.852674 1.53232,-1.524789 2.38165,-0.933631 1.06352,0.702366 1.35769,2.462965 1.43765,3.917594 0.0124,1.453884 -0.10601,3.132359 -0.93628,4.185641 -0.94061,0.89059 -2.24384,0.0321 -2.78902,-1.16147 -0.48514,-0.797782 -0.29191,-2.104183 0.41455,-2.538879 0.39663,-0.462877 0.99057,-0.210311 1.26256,0.333391"
       style="fill:none;fill-rule:evenodd;stroke:#000000;stroke-width:0.44741622px;stroke-linecap:butt;stroke-linejoin:miter;stroke-opacity:1" />
  </g>
  <g
     id="g4615"
     transform="translate(16,696)">
    <circle
       inkscape:transform-center-y="-30.000001"
       inkscape:transform-center-x="21.000001"
       r="8"
       cy="88.75"
       cx="316.75"
       id="circle4617"
       style="fill:#575f70;fill-opacity:0;stroke:#000000;stroke-width:1;stroke-miterlimit:4;stroke-dasharray:none;stroke-opacity:1" />
    <path
       inkscape:connector-curvature="0"
       id="path4619"
       d="m 325.16214,88.184824 c 1.23183,-0.658751 2.95508,-0.113179 3.47646,1.656838 0.34251,1.010875 -0.41491,2.032118 0.13849,2.960128 0.78259,2.163149 3.07752,3.037357 4.52538,1.549367 0.80396,-0.731039 1.06139,-2.042248 1.5157,-3.12191 0.86848,-2.682792 0.84805,-6.206656 -0.74543,-8.403211 -0.58855,-0.852674 -1.53232,-1.524789 -2.38165,-0.933631 -1.06352,0.702366 -1.35769,2.462965 -1.43765,3.917594 -0.0124,1.453884 0.10601,3.132359 0.93628,4.185643 0.94061,0.890586 2.24384,0.03211 2.78902,-1.161472 0.48514,-0.797782 0.29191,-2.104183 -0.41455,-2.538879 -0.39663,-0.462877 -0.99057,-0.210311 -1.26256,0.333391"
       style="fill:none;fill-rule:evenodd;stroke:#000000;stroke-width:0.44741622px;stroke-linecap:butt;stroke-linejoin:miter;stroke-opacity:1" />
    <path
       style="fill:none;fill-rule:evenodd;stroke:#000000;stroke-width:0.44741622px;stroke-linecap:butt;stroke-linejoin:miter;stroke-opacity:1"
       d="m 308.26456,88.184824 c -1.23183,-0.658751 -2.95508,-0.113179 -3.47646,1.656836 -0.34251,1.01088 0.41491,2.03212 -0.13849,2.96013 -0.78259,2.16315 -3.07752,3.03736 -4.52538,1.54937 -0.80396,-0.73104 -1.06139,-2.04225 -1.5157,-3.12191 -0.86848,-2.682795 -0.84805,-6.206659 0.74543,-8.403214 0.58855,-0.852674 1.53232,-1.524789 2.38165,-0.933631 1.06352,0.702366 1.35769,2.462965 1.43765,3.917594 0.0124,1.453884 -0.10601,3.132359 -0.93628,4.185641 -0.94061,0.89059 -2.24384,0.0321 -2.78902,-1.16147 -0.48514,-0.797782 -0.29191,-2.104183 0.41455,-2.538879 0.39663,-0.462877 0.99057,-0.210311 1.26256,0.333391"
       id="path4621"
       inkscape:connector-curvature="0" />
  </g>
  <g
     id="g4744"
     transform="matrix(0,-0.20924125,0.20924125,0,228.30586,851.59174)">
    <path
       sodipodi:nodetypes="ccccccccccc"
       inkscape:connector-curvature="0"
       id="path4636"
       d="m -359.93815,660.5757 c -19.4025,-7.16585 -37.19085,-13.83512 -45.69204,-33.39104 -17.60556,-37.65429 -38.85968,-74.60002 -43.63048,-116.70382 -11.82293,-74.00442 10.85239,-173.20598 68.17486,-223.48794 46.07942,-46.51716 116.49156,-70.39866 183.08252,-71.07039 98.94187,0.24348 148.748634,32.28026 199.6704668,98.54315 C 53.39179,386.4832 66.144097,481.60407 47.980834,567.07684 32.872277,613.41663 -1.0334979,662.56509 -53.52735,667.6501 -84.253719,667.99618 -76.708302,626.76612 -97.43594,610.86965 -144.57169,575.4266 -229.99925,565.37788 -278.34883,599.57 c -36.55355,8.14368 -35.07366,78.14807 -81.58932,61.0057 z"
       style="fill:none;fill-rule:evenodd;stroke:#000000;stroke-width:1px;stroke-linecap:butt;stroke-linejoin:miter;stroke-opacity:1" />
    <path
       sodipodi:nodetypes="ccccccccccccc"
       inkscape:connector-curvature="0"
       id="path4649"
       d="m -302,600 -86,-60 0,0 0,-158 62,-56 0,0 258,2 0,0 56,50 0,0 4.0000003,162 L -100,604 c -51.27566,-16.24403 -80.58877,-52.88186 -202,-4 z"
       style="fill:none;fill-rule:evenodd;stroke:#000000;stroke-width:1px;stroke-linecap:butt;stroke-linejoin:miter;stroke-opacity:1" />
    <g
       transform="translate(-178,328)"
       id="g4668">
      <path
         style="fill:none;fill-rule:evenodd;stroke:#000000;stroke-width:1px;stroke-linecap:butt;stroke-linejoin:miter;stroke-opacity:1"
         d="m -94,226 0,-92 0,0 C 12.215755,2.2710528 -250.74384,-13.479058 -148,134 l 0,92"
         id="path4651"
         inkscape:connector-curvature="0"
         sodipodi:nodetypes="cccc" />
      <path
         style="fill:none;fill-rule:evenodd;stroke:#000000;stroke-width:1px;stroke-linecap:butt;stroke-linejoin:miter;stroke-opacity:1"
         d="m -148,152 c 0.23936,-21.0587 -5.95047,-48.84246 1.10989,-69.108484 4.84462,-11.477063 16.1216,-22.117396 28.6815,-19.04353 8.78815,2.439818 21.56468,13.515421 24.254414,21.562497 3.250151,20.975667 1.625256,41.073477 -0.04581,60.589517"
         id="path4653"
         inkscape:connector-curvature="0"
         sodipodi:nodetypes="ccccc" />
    </g>
    <g
       id="g4672"
       transform="translate(36,330)">
      <path
         sodipodi:nodetypes="cccc"
         inkscape:connector-curvature="0"
         id="path4674"
         d="m -94,226 0,-92 0,0 C 12.215755,2.2710528 -250.74384,-13.479058 -148,134 l 0,92"
         style="fill:none;fill-rule:evenodd;stroke:#000000;stroke-width:1px;stroke-linecap:butt;stroke-linejoin:miter;stroke-opacity:1" />
      <path
         sodipodi:nodetypes="ccccc"
         inkscape:connector-curvature="0"
         id="path4676"
         d="m -148,152 c 0.23936,-21.0587 -5.95047,-48.84246 1.10989,-69.108484 4.84462,-11.477063 16.1216,-22.117396 28.6815,-19.04353 8.78815,2.439818 21.56468,13.515421 24.254414,21.562497 3.250151,20.975667 1.625256,41.073477 -0.04581,60.589517"
         style="fill:none;fill-rule:evenodd;stroke:#000000;stroke-width:1px;stroke-linecap:butt;stroke-linejoin:miter;stroke-opacity:1" />
    </g>
    <circle
       r="23"
       cy="619"
       cx="-367"
       id="path4678"
       style="fill:#575f70;fill-opacity:0;stroke:#000000;stroke-width:1;stroke-miterlimit:4;stroke-dasharray:none;stroke-opacity:1" />
    <circle
       style="fill:#575f70;fill-opacity:0;stroke:#000000;stroke-width:1;stroke-miterlimit:4;stroke-dasharray:none;stroke-opacity:1"
       id="circle4680"
       cx="-29"
       cy="321"
       r="23" />
    <circle
       r="23"
       cy="621"
       cx="-43"
       id="circle4682"
       style="fill:#575f70;fill-opacity:0;stroke:#000000;stroke-width:1;stroke-miterlimit:4;stroke-dasharray:none;stroke-opacity:1" />
    <circle
       style="fill:#575f70;fill-opacity:0;stroke:#000000;stroke-width:1;stroke-miterlimit:4;stroke-dasharray:none;stroke-opacity:1"
       id="circle4684"
       cx="-377"
       cy="329"
       r="23" />
    <path
       inkscape:connector-curvature="0"
       id="path4686"
       d="m -370,576 c -22.03437,0 -24.5249,0 -38,0"
       style="fill:none;fill-rule:evenodd;stroke:#000000;stroke-width:1px;stroke-linecap:butt;stroke-linejoin:miter;stroke-opacity:1" />
    <path
       style="fill:none;fill-rule:evenodd;stroke:#000000;stroke-width:1px;stroke-linecap:butt;stroke-linejoin:miter;stroke-opacity:1"
       d="M -8.0000002,584 C -30.03437,584 -32.5249,584 -46,584"
       id="path4688"
       inkscape:connector-curvature="0" />
    <g
       transform="translate(-26,-346)"
       id="g4694">
      <path
         inkscape:connector-curvature="0"
         id="path4690"
         d="m -370,736 c -22.03437,0 -24.5249,0 -38,0"
         style="fill:none;fill-rule:evenodd;stroke:#000000;stroke-width:1px;stroke-linecap:butt;stroke-linejoin:miter;stroke-opacity:1" />
      <path
         style="fill:none;fill-rule:evenodd;stroke:#000000;stroke-width:1px;stroke-linecap:butt;stroke-linejoin:miter;stroke-opacity:1"
         d="m -389,755 c 0,-22.03437 0,-24.5249 0,-38"
         id="path4692"
         inkscape:connector-curvature="0" />
    </g>
    <g
       id="g4698"
       transform="translate(400,-354)">
      <path
         style="fill:none;fill-rule:evenodd;stroke:#000000;stroke-width:1px;stroke-linecap:butt;stroke-linejoin:miter;stroke-opacity:1"
         d="m -370,736 c -22.03437,0 -24.5249,0 -38,0"
         id="path4700"
         inkscape:connector-curvature="0" />
      <path
         inkscape:connector-curvature="0"
         id="path4702"
         d="m -389,755 c 0,-22.03437 0,-24.5249 0,-38"
         style="fill:none;fill-rule:evenodd;stroke:#000000;stroke-width:1px;stroke-linecap:butt;stroke-linejoin:miter;stroke-opacity:1" />
    </g>
  </g>
</svg>
