<?xml version="1.0" encoding="UTF-8" standalone="no"?>
<!-- Created with Inkscape (http://www.inkscape.org/) -->

<svg
   xmlns:dc="http://purl.org/dc/elements/1.1/"
   xmlns:cc="http://creativecommons.org/ns#"
   xmlns:rdf="http://www.w3.org/1999/02/22-rdf-syntax-ns#"
   xmlns:svg="http://www.w3.org/2000/svg"
   xmlns="http://www.w3.org/2000/svg"
   xmlns:sodipodi="http://sodipodi.sourceforge.net/DTD/sodipodi-0.dtd"
   xmlns:inkscape="http://www.inkscape.org/namespaces/inkscape"
   width="8.2677202in"
   height="11.692913in"
   viewBox="0 0 744.09483 1052.3622"
   id="svg2"
   version="1.1"
   inkscape:version="0.91 r13725"
   sodipodi:docname="bat_template.svg">
  <defs
     id="defs4" />
  <sodipodi:namedview
     id="base"
     pagecolor="#ffffff"
     bordercolor="#666666"
     borderopacity="1.0"
     inkscape:pageopacity="0.0"
     inkscape:pageshadow="2"
     inkscape:zoom="0.64"
     inkscape:cx="310.30409"
     inkscape:cy="724.61824"
     inkscape:document-units="in"
     inkscape:current-layer="layer1"
     showgrid="false"
     units="in"
     showborder="true"
     inkscape:window-width="1280"
     inkscape:window-height="702"
     inkscape:window-x="41"
     inkscape:window-y="0"
     inkscape:window-maximized="0" />
  <metadata
     id="metadata7">
    <rdf:RDF>
      <cc:Work
         rdf:about="">
        <dc:format>image/svg+xml</dc:format>
        <dc:type
           rdf:resource="http://purl.org/dc/dcmitype/StillImage" />
        <dc:title></dc:title>
      </cc:Work>
    </rdf:RDF>
  </metadata>
  <g
     inkscape:label="Layer 1"
     inkscape:groupmode="layer"
     id="layer1"
     transform="translate(0,2.9736617e-5)">
    <g
       id="g4155"
       transform="translate(-201.125,10.5)">
      <path
         sodipodi:nodetypes="cccccccccc"
         inkscape:connector-curvature="0"
         id="path4138"
         d="m 356.83594,148.84653 c 24.9265,-0.21358 48.38723,-0.64204 66.57132,-19.78839 8.75512,-7.85294 6.70935,-32.07808 10.19373,-40.26267 23.46043,32.8057 17.56386,22.70214 23.46043,32.8057 10.96335,20.86465 19.89078,46.95929 21.25886,70.5022 1.9258,25.8501 0.5726,52.04037 -4.07925,77.5182 -8.61684,28.37317 -31.65693,48.58569 -49.68253,71.02852 -21.31936,22.96036 -43.93353,44.75951 -63.8753,68.95686 l -1.43644,1.45465 -1.43426,1.4568"
         style="fill:none;fill-rule:evenodd;stroke:#000000;stroke-width:1px;stroke-linecap:butt;stroke-linejoin:miter;stroke-opacity:1" />
      <path
         style="fill:none;fill-rule:evenodd;stroke:#000000;stroke-width:1px;stroke-linecap:butt;stroke-linejoin:miter;stroke-opacity:1"
         d="m 358.29641,148.84653 c -25.12181,0.17705 -47.60598,-0.83735 -65.79007,-19.9837 -8.75512,-7.85294 -6.70935,-32.078083 -10.19373,-40.262673 -23.46043,32.805703 -17.56386,22.702143 -23.46043,32.805703 -10.96335,20.86465 -19.89078,46.95929 -21.25886,70.5022 -1.9258,25.8501 -0.5726,52.04037 4.07925,77.5182 8.61684,28.37317 31.65693,48.58569 49.68253,71.02852 21.31936,22.96036 43.93353,44.75951 63.8753,68.95686 l 1.43644,1.45465 1.43426,1.4568"
         id="path4153"
         inkscape:connector-curvature="0"
         sodipodi:nodetypes="cccccccccc" />
    </g>
    <path
       style="fill:none;fill-rule:evenodd;stroke:#000000;stroke-width:1;stroke-linecap:butt;stroke-linejoin:miter;stroke-miterlimit:4;stroke-dasharray:none;stroke-opacity:1"
       d="m 587.16694,438.58919 c -39.04306,-97.71172 -10.43732,-101.04376 -34.9611,-268.57061 -12.57982,-55.32469 -47.24124,-55.26746 -40.36618,-62.28313 15.95379,-16.280081 25.40185,-39.059821 59.05906,-58.740571 52.45641,-30.67341 85.98047,-17.07622 103.06,-9.38878 -41.06971,7.41378 -31.5875,140.038111 14.86029,133.848561 -45.90364,24.6123 -38.85422,153.53779 10.02704,172.15855 -51.60322,36.00013 -34.90688,105.33569 3.13634,113.91621 -34.17881,9.26479 -90.28331,18.23621 -114.81545,-20.94023 z"
       id="path4159"
       inkscape:connector-curvature="0"
       sodipodi:nodetypes="ccscccccc" />
    <path
       sodipodi:nodetypes="ccscccccc"
       inkscape:connector-curvature="0"
       id="path4179"
       d="m 411.39515,438.58919 c 39.04306,-97.71172 10.43732,-101.04376 34.9611,-268.57061 12.57982,-55.32469 47.24124,-55.26746 40.36618,-62.28313 -15.95379,-16.280081 -25.40185,-39.059821 -59.05906,-58.740571 -52.45641,-30.67341 -85.98047,-17.07622 -103.06,-9.38878 41.06971,7.41378 31.5875,140.038111 -14.86029,133.848561 45.90364,24.6123 38.85422,153.53779 -10.02704,172.15855 51.60322,36.00013 34.90688,105.33569 -3.13634,113.91621 34.17881,9.26479 90.28331,18.23621 114.81545,-20.94023 z"
       style="fill:none;fill-rule:evenodd;stroke:#000000;stroke-width:1;stroke-linecap:butt;stroke-linejoin:miter;stroke-miterlimit:4;stroke-dasharray:none;stroke-opacity:1" />
  </g>
</svg>
